Title:
Therese Desqueyroux

Country:
France,2012

Language:
French

Subtitle:
Dutch

Director:
Claude Miller

Writers:
François Mauriac (novel), Claude Miller (scenario, adaptation and dialogue)

Stars:
Audrey Tautou, Gilles Lellouche, Anaïs Demoustier

Synopsis:
The year is 1926. In the Landes region, free-spirited Thérèse Larroque, the daughter of a wealthy pinery owner and radical-socialist politician, marries Bernard Desqueyroux, another pinery owner. Although she does it half-heartedly, she thinks that marriage may help her to "sort out all the ideas in her mind". But her disappointment is great. Her wedding night is all but fascinating and when she becomes pregnant she realizes the baby matters more to Bernard than herself. While Thérèse stifles in her husband's beautiful residence among stiff in-laws who do not think high of her, ideas keep on roaming her mind. 

Trivia:
Official Selection Cannes Film Festival 2012

Trailer: 
http://www.bandes-annonces.fr/film-2012/bande-annonce-theresedesqueyroux.html


Media Info:

General
Complete name                            : Therese.Desqueyroux.2012.DVDRip.AC3.HORiZON-ArtSubs
Format                                   : AVI
Format/Info                              : Audio Video Interleave
File size                                : 1.37 GiB
Duration                                 : 1h 46mn
Overall bit rate                         : 1 850 Kbps

Video
ID                                       : 0
Format                                   : MPEG-4 Visual
Format profile                           : Advanced Simple@L5
Format settings, BVOP                    : 1
Format settings, QPel                    : No
Format settings, GMC                     : No warppoints
Format settings, Matrix                  : Default (H.263)
Muxing mode                              : Packed bitstream
Codec ID                                 : XVID
Codec ID/Hint                            : XviD
Duration                                 : 1h 46mn
Bit rate                                 : 1 394 Kbps
Width                                    : 640 pixels
Height                                   : 272 pixels
Display aspect ratio                     : 2.35:1
Frame rate                               : 25.000 fps
Color space                              : YUV
Chroma subsampling                       : 4:2:0
Bit depth                                : 8 bits
Scan type                                : Progressive
Compression mode                         : Lossy
Bits/(Pixel*Frame)                       : 0.320
Stream size                              : 1.03 GiB (75%)
Writing library                          : XviD 62

Audio
ID                                       : 1
Format                                   : AC-3
Format/Info                              : Audio Coding 3
Mode extension                           : CM (complete main)
Format settings, Endianness              : Big
Codec ID                                 : 2000
Duration                                 : 1h 46mn
Bit rate mode                            : Constant
Bit rate                                 : 448 Kbps
Channel(s)                               : 6 channels
Channel positions                        : Front: L C R, Side: L R, LFE
Sampling rate                            : 48.0 KHz
Bit depth                                : 16 bits
Compression mode                         : Lossy
Stream size                              : 340 MiB (24%)
Alignment                                : Split accross interleaves
Interleave, duration                     : 64 ms (1.60 video frames)
Interleave, preload duration             : 500 ms

